<?xml version="1.0" encoding="UTF-8"?>
<svg id="ALL" xmlns="http://www.w3.org/2000/svg" xmlns:xlink="http://www.w3.org/1999/xlink" viewBox="0 0 1127.45 360">
  <defs>
    <style>
      .cls-1 {
        fill: none;
      }

      .cls-2 {
        fill: #7fbc42;
      }

      .cls-3 {
        fill: url(#linear-gradient-3);
      }

      .cls-4 {
        fill: url(#linear-gradient-2);
      }

      .cls-5 {
        fill: url(#linear-gradient);
      }

      .cls-6 {
        fill: #007934;
      }

      .cls-7 {
        clip-path: url(#clippath);
      }
    </style>
    <linearGradient id="linear-gradient" x1="199.83" y1="190.98" x2="199.83" y2="381.24" gradientUnits="userSpaceOnUse">
      <stop offset="0" stop-color="#057a3e"/>
      <stop offset=".52" stop-color="#2e5136"/>
    </linearGradient>
    <linearGradient id="linear-gradient-2" x1="199.83" y1="63.97" x2="199.83" y2="296.03" gradientUnits="userSpaceOnUse">
      <stop offset="0" stop-color="#057a3e"/>
      <stop offset="1" stop-color="#2e5136"/>
    </linearGradient>
    <clipPath id="clippath">
      <polygon class="cls-1" points="256.11 82.51 143.54 82.51 87.26 180 143.54 277.49 256.11 277.49 312.4 180 256.11 82.51"/>
    </clipPath>
    <linearGradient id="linear-gradient-3" x1="199.5" y1="90.1" x2="198.84" y2="153.32" gradientUnits="userSpaceOnUse">
      <stop offset="0" stop-color="#057a3e"/>
      <stop offset="1" stop-color="#2e5136"/>
    </linearGradient>
  </defs>
  <g>
    <path class="cls-6" d="M413.05,111.67h43.67c27.31,0,47.62,9.67,47.62,35.61,0,36.49-29.68,52.52-62.12,52.52h-17.66l-10.07,51.08h-29.28l27.84-139.2ZM444.16,176.65c20.7,0,31.25-9.95,31.25-25.07,0-11.68-8.24-16.76-23.23-16.76h-14.64l-8.16,41.83h14.79ZM439.34,193.04l21.11-18.75,30.03,76.59h-30.84l-20.3-57.84Z"/>
    <path class="cls-6" d="M568.81,111.67h34.92l14.07,139.2h-30.69l-3.56-75.43c-.65-13.69-1.38-26.76-1.68-41.38h-.85c-6.08,14.35-11.45,27.54-17.96,41.38l-35.57,75.43h-32.25l73.59-139.2ZM537.06,193.79h63.67l-5.15,22.09h-63.75l5.23-22.09Z"/>
    <path class="cls-6" d="M650.98,111.67h43.98c27.21,0,47.69,10.18,47.69,36.96,0,38.85-29.15,53.88-64.23,53.88h-16.43l-9.57,48.36h-29.28l27.84-139.2ZM681.54,179.36c20.67,0,32.18-9.09,32.18-26.43,0-12.54-8.49-18.11-23.31-18.11h-14.94l-8.67,44.54h14.74Z"/>
    <path class="cls-6" d="M781.07,136.31h-36.61l4.8-24.63h102.5l-4.8,24.63h-36.61l-22.69,114.57h-29.28l22.69-114.57Z"/>
    <path class="cls-6" d="M835.34,194.57c0-49.2,33.07-85.46,70.79-85.46,31.81,0,52.32,21.88,52.32,58.87,0,49.2-33.07,85.45-70.79,85.45-31.81,0-52.32-21.88-52.32-58.87ZM928.46,169.89c0-22.11-8.37-35.52-23.81-35.52-19.79,0-39.31,26.02-39.31,58.28,0,22.11,8.37,35.52,23.81,35.52,19.79,0,39.31-26.02,39.31-58.28Z"/>
    <path class="cls-6" d="M980.95,111.67h43.67c27.31,0,47.62,9.67,47.62,35.61,0,36.49-29.68,52.52-62.12,52.52h-17.66l-10.07,51.08h-29.28l27.84-139.2ZM1012.07,176.65c20.7,0,31.25-9.95,31.25-25.07,0-11.68-8.24-16.76-23.23-16.76h-14.64l-8.16,41.83h14.79ZM1007.24,193.04l21.11-18.75,30.03,76.59h-30.84l-20.3-57.84Z"/>
  </g>
  <polygon class="cls-2" points="271.88 55.2 127.78 55.2 55.73 180 127.78 304.8 271.88 304.8 343.93 180 271.88 55.2"/>
  <polygon class="cls-5" points="256.11 82.51 143.54 82.51 87.26 180 143.54 277.49 256.11 277.49 312.4 180 256.11 82.51"/>
  <path class="cls-4" d="M262.2,71.97l62.37,108.03-62.37,108.03h-124.74l-62.37-108.03,62.37-108.03h124.74M266.82,63.97h-133.98l-2.31,4-62.37,108.03-2.31,4,2.31,4,62.37,108.03,2.31,4h133.98l2.31-4,62.37-108.03,2.31-4-2.31-4-62.37-108.03-2.31-4h0Z"/>
  <g class="cls-7">
    <g>
      <g>
        <path class="cls-3" d="M207.57,266.14c-3.48,0-6.22-2.13-8.16-6.34-2,2.95-5.27,5.77-9.48,5.77-.66,0-1.33-.07-1.99-.22-5.05-1.1-6.9-4.43-7.53-7.55-1.88,1.63-4.09,2.51-6.41,2.51-1.23,0-2.47-.25-3.69-.74-4.04-1.63-4.97-5.18-5.29-9.53-1.67.78-3.48,1.2-5.23,1.2-1.97,0-3.79-.52-5.27-1.49-1.56-1.03-2.63-3.38-3.17-6.99-.13-.85-.16-1.62-.08-2.4-.45.06-.9.09-1.37.09-2.34,0-4.84-.8-7.64-2.44-.88-.52-1.68-1.45-2.14-2.48-1.75-3.99-.7-7.43.91-10.21-2.43-.12-4.79-1.12-7.05-2.98-.89-.74-1.54-1.91-1.65-2.99-.15-1.42-.3-2.88,18.25-17.69,8.95-7.15,18.46-14.34,20.12-15.54.1-.08.24-.24.32-.36-.24-3.08-.52-6.2-.8-9.29-1.31,2.09-3.15,2.45-4.27,2.45-1,0-2.08-.29-3.21-.85-.38-.19-.72-.39-1.03-.58-1.29,2.43-3.4,3.81-5.84,3.81-1.23,0-2.47-.35-3.71-1.03-1.32-.73-2.47-1.65-3.44-2.47-.46-.39-.9-.8-1.33-1.21-1.23,1.28-2.96,2.58-5.18,2.58-.87,0-1.74-.2-2.61-.59-1.92-.87-3.53-2.24-5.08-3.56-.21-.18-.42-.36-.63-.54-1.33,1.07-2.91,1.67-4.55,1.67-1.02,0-2.04-.23-3.01-.69-1.83-.85-3.34-2.18-4.81-3.47-.31-.27-.63-.55-.95-.83-1.56.69-2.92,1.02-4.19,1.02-3.49,0-5.87-2.45-7.84-5.47-1.26.7-2.66,1.06-4.14,1.06-1.16,0-2.37-.22-3.6-.65-2.86-1.01-4.48-3.25-5.49-5.39-1.11.37-2.28.56-3.55.56-.81,0-1.67-.08-2.6-.23-3.03-.5-4.42-2.66-5.44-4.23l-.13-.19c-.71.04-1.37.06-1.97.06-5.72,0-8.64-1.78-10.08-6.42-1.06.22-2.11.33-3.14.33-3.73,0-6.89-1.5-8.44-4.03-.76-1.24-1.11-2.66-1.05-4.17-.13.05-.27.1-.4.15-1.27.45-2.57.67-3.85.67-2.55,0-5.07-.87-7.49-2.59-1.86-1.32-2.96-2.92-3.24-4.75-.11-.68-.1-1.37.03-2.06-1.16.35-2.34.52-3.54.52-3.5,0-6.68-1.52-8.76-2.67-.82-.45-1.78-1.34-2.01-2.49-.14-.7-.22-.84-2.12-1.23l-.26-.05c-1.64-.35-3.17-.95-4.66-1.54-.49-.19-.97-.39-1.46-.57-1.43-.53-5.47-2.04-6.08-6.28-.38-.1-.76-.21-1.13-.31-1.95-.53-3.8-1.03-5.63-1.79l-.67-.27c-2.19-.89-5.13-2.08-6.33-5.32-.17-.06-.32-.12-.46-.18-.58-.27-1.17-.52-1.76-.78-1.36-.6-2.76-1.21-4.12-1.95-2.1-1.13-3.32-2.72-3.63-4.75-.12-.07-.25-.14-.39-.19-1.78-.71-3.56-1.39-5.35-2.07-2.26-.87-4.6-1.76-6.88-2.69-.96-.39-1.74-1-2.42-1.53-.26-.2-.52-.4-.78-.58l-.9-.62.11-3.35,10.66-2.29c-7.23-1.56-15.55-3.56-23.18-7.5-1.49-.77-2.86-1.69-4.18-2.58-.58-.39-1.16-.78-1.75-1.16l-1.57-1,1.69-3.13H-14.33c-8.5-2.29-16.47-4.85-24.17-8.41-4.2-1.94-8.14-4.44-11.96-6.86l-.63-.4c-1.33-.84-2.37-1.94-3.38-3-.41-.43-.81-.85-1.23-1.25l-1.16-1.11,1.91-3.18,1.44.37c3.73.95,7.45,1.95,11.17,2.94,11.29,3.01,22.84,6.1,34.61,7.99-5.74-2.05-11.51-4.35-17.17-7.11-5.48-2.67-11.79-6.05-17.05-10.93-2-1.85-3.88-4.13-5.92-7.18l-3.97-5.92,6.47,3c16.9,7.83,35,15.52,54.32,20.21-3.93-2.11-7.9-4.51-11.64-7.29-5.29-3.93-9.06-7.83-11.88-12.28-.78-1.23-1.42-2.58-1.96-4.12l-2.23-6.43,5.36,4.21c26.46,20.77,57.6,31.51,87.83,39.58l-3.95-3.24,2.99-3.49,1.34.56c.35.15.7.3,1.05.45.7.3,1.4.6,2.12.87,2.68,1.01,5.35,2.04,8.03,3.06,6.36,2.43,12.93,4.95,19.45,7.25,12.49,4.41,23.35,9.86,33.2,16.68,3.68,2.54,7.85,4.64,11.88,6.67,1.16.58,2.32,1.17,3.46,1.76,3.21,1.66,6.42,3.21,9.41,4.63l5.11,2.43c3.66,1.74,6.89,2.59,9.88,2.59,1.87,0,3.64-.32,5.41-.98,2.04-.76,4.01-1.9,5.85-3,3.8-2.28,7.66-3.43,11.46-3.43s7.58,1.17,11.14,3.48c3.65,2.37,7.24,3.52,10.98,3.52,3.24,0,6.55-.85,10.12-2.61,2.65-1.3,5.32-2.58,7.98-3.85l.63-.3c4.11-1.96,8.77-4.17,13.24-6.51,3.98-2.08,8.1-4.64,12.22-7.6,5.72-4.1,11.88-7.38,18.84-10,8.87-3.35,17.83-6.91,26.5-10.35,3.21-1.28,6.42-2.55,9.64-3.82.61-.24,1.21-.53,1.85-.84.31-.15.63-.3.95-.45l1.41-.65,2.66,3.23-3.45,3.14c28.94-8.1,60.99-19.03,87.2-41.06l1.34-1.13,2.87,2.61-.68,1.35c-.17.35-.34.7-.51,1.05-.39.82-.79,1.67-1.31,2.5-3.43,5.58-8.21,10.36-14.2,14.23-3.53,2.28-7.22,4.37-10.85,6.39,21.12-5.39,40.24-14.19,55.18-21.67l1.37-.69,2.44,2.75-.87,1.29c-.23.34-.44.7-.65,1.06-.55.94-1.18,2-2.13,2.84-.83.73-1.66,1.47-2.49,2.21-2.93,2.63-5.96,5.36-9.38,7.5-8.5,5.32-17.47,9.28-26.05,12.44,4.58-.82,9.62-1.87,14.55-3.12,7.26-1.83,14.62-3.86,21.73-5.83,3.22-.89,6.43-1.78,9.65-2.65l1.37-.37,2.17,3.16-1.28,1.17c-.54.5-1.07,1.04-1.59,1.57-1.27,1.3-2.59,2.65-4.25,3.62-.82.48-1.63.97-2.45,1.45-4.47,2.66-9.09,5.42-14.07,7.24-7.02,2.57-14.28,4.72-21.31,6.8-.06.02-.13.04-.19.06.77,0,1.55.01,2.36.01,4.86,0,9.81-.17,14.6-.32,4.4-.15,8.95-.3,13.44-.32h1.17s1.7,2.97,1.7,2.97l-1.31,1.07c-.25.21-.5.42-.74.63-.6.52-1.22,1.06-1.95,1.54-5.95,3.93-12.64,6.07-17.8,7.49-2.68.74-5.42,1.41-8.08,2.06l10.18,1.96.57,3.11-.9.8c-.25.21-.5.42-.74.64-.63.56-1.29,1.13-2.08,1.63-1.48.93-2.94,1.82-4.58,2.46-4.69,1.84-9.48,3.65-14.1,5.41-1.43.54-2.87,1.09-4.3,1.63.38.98.55,1.99.26,3.01-.47,1.65-1.94,2.66-3.46,3.49-2.89,1.59-6.01,2.68-9.03,3.73l-.53.18c-1.29.45-1.47.63-1.63,1.15-.75,2.42-2.59,4.27-5.31,5.36-1.49.6-3.02,1.07-4.49,1.54-.97.3-1.93.61-2.89.94-.52.19-.74.32-.81.37-2.26,3.6-6.78,6.01-11.28,6.01-.92,0-1.82-.11-2.67-.31.05.45.04.86,0,1.21-.24,2.12-1.67,4.09-4.03,5.54-2.21,1.36-4.52,2.05-6.87,2.05-1.14,0-2.3-.16-3.46-.49.08.86,0,1.71-.23,2.53-.55,1.93-1.91,3.53-3.94,4.64-1.86,1.01-3.44,1.45-5.31,1.45-1.06,0-2.24-.14-3.74-.46-.69,3.46-2.72,5.9-5.96,7.13-1.63.62-3.11.92-4.52.92s-2.84-.33-4.12-.98c-.66,1.92-1.98,4.1-4.73,5.26-1.21.51-2.42.76-3.62.76-1.31,0-2.58-.3-3.81-.9-.91,2.2-2.34,4.24-4.96,5.36-1.37.59-2.7.88-3.97.88-1.45,0-2.81-.4-4.03-1.16-2.63,3.53-5.15,5.77-8.25,5.77-1.27,0-2.56-.38-3.99-1.19-.24.22-.48.43-.72.65-1.41,1.27-2.87,2.58-4.6,3.54-1.07.59-2.18.9-3.29.9-1.55,0-3.04-.6-4.29-1.7-.13.11-.27.22-.4.34-1.44,1.22-2.93,2.47-4.64,3.43-1.02.57-2.04.86-3.03.86-1.99,0-3.62-1.13-4.94-2.46-.48.41-.99.83-1.53,1.22-2.17,1.58-3.98,2.31-5.7,2.31-.86,0-1.68-.19-2.44-.57-1.16-.58-2.14-1.55-3.02-3-.56.35-1.15.69-1.78.99-1.06.5-2,.74-2.9.74-1.27,0-2.96-.5-4.14-2.72-.12.81-.26,1.62-.44,2.43-.42,1.89-1.12,3.67-1.8,5.38-.2.5-.4,1.01-.59,1.52.03.02.06.04.1.07,2.89,1.95,12.14,8.32,20.83,14.57,17.27,12.42,17.65,13.73,17.92,14.69.56,1.95.78,4.21-1.79,6.29-2.11,1.7-4.23,2.63-6.58,2.88,1.92,3.48,2.02,6.9.28,10.2-1.14,2.16-4.01,3.4-7.88,3.4-.92,0-1.86-.07-2.79-.21.96,4.02,0,9.23-3.2,11.31-1.31.85-3.1,1.32-5.04,1.32-2.09,0-4.1-.54-5.84-1.51.05,4.01-2.11,9.06-5.36,10.28l-.13.04c-.67.2-1.37.3-2.07.3-2.86,0-5.45-1.62-7.45-3.42-.13,2.19-.69,4.6-2.27,6.57-1.69,2.1-4.23,3.33-7.54,3.66-.3.03-.59.04-.88.04Z"/>
        <path class="cls-2" d="M414.33,28.92c.15.14.3.27.45.41-.57,1.14-1.06,2.33-1.73,3.41-3.45,5.6-8.14,10.09-13.58,13.6-6,3.87-12.37,7.16-18.59,10.67-1.22.69-2.51,1.26-3.66,2.14,24.25-4.27,46.68-13.68,68.56-24.62.13.15.26.29.39.44-.8,1.18-1.4,2.6-2.44,3.51-3.77,3.3-7.4,6.89-11.62,9.52-12.1,7.58-25.41,12.51-38.98,16.73-1.09.34-2.16.73-3.53,1.19.43.09,1.05.13,1.83.13,5.53,0,19.07-2.15,30.73-5.09,10.52-2.65,20.95-5.64,31.42-8.48.13.19.26.37.39.56-1.82,1.67-3.42,3.72-5.5,4.94-5.26,3.09-10.51,6.46-16.19,8.54-9.84,3.61-20.01,6.32-30.04,9.41-.65.2-1.32.38-1.95.79,4.51.4,9.02.54,13.53.54,9.36,0,18.71-.6,28.05-.65.09.16.19.33.28.49-.84.69-1.62,1.45-2.52,2.05-5.28,3.49-11.18,5.57-17.23,7.23-4.59,1.27-9.25,2.32-13.87,3.48-.59.15-1.15.41-1.68,1,5.49,1.06,10.98,2.11,16.47,3.17.04.22.08.44.12.66-.87.71-1.67,1.52-2.61,2.11-1.36.86-2.76,1.71-4.25,2.29-6.56,2.57-13.15,5.04-19.73,7.54-.23.09-.45.22-.68.33,1.73,3.03,1.68,4.06-1.43,5.77-2.9,1.6-6.11,2.68-9.25,3.78-1.37.48-2.41.95-2.88,2.45-.64,2.05-2.25,3.34-4.14,4.09-2.38.95-4.88,1.6-7.3,2.45-.66.23-1.46.59-1.8,1.14-1.89,3.07-5.87,5.13-9.62,5.13-.83,0-1.65-.1-2.43-.31-1.41-.38-2.77-.99-4.37-1.57.19.31.27.52.41.66,3.32,3.26,1.35,6.29-1.37,7.96-1.89,1.16-3.84,1.75-5.83,1.75-1.55,0-3.12-.36-4.72-1.07-.63-.29-1.26-.59-2.33-1.1.39.67.56.95.72,1.24,1.76,3.08.88,6.14-2.26,7.85-1.47.8-2.74,1.2-4.36,1.2-1.43,0-3.13-.31-5.48-.92-.09,3.57-1.51,6.43-4.93,7.73-1.27.48-2.55.79-3.81.79-1.87,0-3.7-.67-5.44-2.43-.34,3.16-1.37,5.69-4.18,6.87-.97.41-1.91.61-2.84.61-1.69,0-3.32-.67-4.88-1.99-.78,2.84-1.9,5.43-4.67,6.62-1.08.46-2.15.72-3.18.72-1.59,0-3.09-.62-4.41-2.07-3.19,4.64-5.46,6.68-7.87,6.68-1.29,0-2.63-.59-4.16-1.67-2.09,1.73-3.89,3.7-6.11,4.93-.81.45-1.59.65-2.33.65-1.66,0-3.08-1.01-4.06-2.47-2.12,1.67-4,3.54-6.24,4.8-.72.4-1.39.6-2.05.6-1.55,0-3.02-1.11-4.75-3.26-.96.8-1.88,1.66-2.89,2.4-1.76,1.28-3.24,1.93-4.52,1.93-.55,0-1.06-.12-1.55-.36-1.2-.6-2.21-1.94-3.12-4.08-1.14.69-2.23,1.48-3.43,2.05-.77.37-1.45.55-2.04.55-1.22,0-2.09-.78-2.71-2.41-.55-1.43-.8-2.98-1.17-4.48-.16-.67-.28-1.35-.41-2.03-.17-.03-.35-.06-.52-.09-.19.56-.46,1.11-.54,1.68-.4,2.87-.55,5.79-1.17,8.61-.51,2.31-1.51,4.51-2.35,6.73-.41,1.09-.1,1.65.89,2.32,5.53,3.74,37.23,25.64,37.94,28.15.44,1.55.56,2.83-1.12,4.18-2.04,1.65-4.13,2.5-6.63,2.5-.88,0-1.8-.11-2.79-.32,3.2,3.56,4.78,7.38,2.6,11.52-.82,1.56-3.28,2.33-6.11,2.33-1.88,0-3.92-.34-5.77-1.01.26.81.46,1.52.71,2.21,1.28,3.45.57,8.53-2.03,10.21-.97.63-2.39,1-3.96,1-2.61,0-5.62-1.03-7.58-3.58-.14-.19-.38-.3-.72-.55.16,1.51.34,2.82.44,4.14.25,3.32-1.56,7.97-4.04,8.89-.5.15-1.01.22-1.51.22-4.93,0-9.41-6.63-9.77-7.17-.12,1.66,3.04,12.92-7.7,13.98-.23.02-.46.03-.68.03-2.95,0-5.15-2.03-6.81-6.27-.44-1.13-.74-2.32-1.14-3.53-.2,2.6-4.06,9.23-9.69,9.23-.51,0-1.03-.05-1.57-.17-5.54-1.2-6.57-5.48-6.14-10.86-.72.95-1.22,1.65-1.75,2.32-1.63,2.05-3.88,3.45-6.46,3.45-.94,0-1.93-.19-2.94-.6-3.8-1.53-4-5.45-4.21-11.13-.48.32-.86.6-1.24.85-1.84,1.2-3.9,1.8-5.82,1.8-1.54,0-2.99-.39-4.16-1.16-1.3-.86-2-3.61-2.3-5.62-.27-1.81-.03-3.13,1.04-5.45-1.45,1.03-2.96,1.44-4.47,1.44-2.28,0-4.55-.95-6.63-2.17-.56-.33-1.05-.96-1.32-1.56-1.69-3.87-.21-7.15,2.02-10.27.34-.47.65-.95.97-1.44.03-.05.03-.12.08-.42-1.22.5-2.39.73-3.51.73-2.27,0-4.34-.95-6.26-2.53-.46-.38-.87-1.07-.94-1.66-.29-2.82,34.46-29.17,37.55-31.41.57-.41,1.2-1.28,1.16-1.89-.46-5.96-1.05-11.91-1.61-17.94-.03,0-.05,0-.08,0-.83,0-1.24.63-1.34,1.87-.12,1.46-.42,2.95-.88,4.34-.63,1.87-1.71,2.8-3.16,2.8-.69,0-1.46-.21-2.31-.64-.36-.18-.71-.39-1.06-.61-.58-.37-1.15-.76-1.76-1.15-.23.58-.43,1.12-.67,1.64-.95,2.04-2.48,3.14-4.27,3.14-.86,0-1.79-.25-2.74-.78-1.12-.62-2.14-1.43-3.13-2.25-.94-.78-1.77-1.69-2.74-2.62-1.34,1.75-2.94,3.53-5.04,3.53-.56,0-1.15-.13-1.78-.41-2.42-1.1-4.38-3.21-6.7-4.98-1.03,1.37-2.62,2.37-4.4,2.37-.7,0-1.43-.15-2.16-.5-2.28-1.07-4.11-3.09-6.33-4.84-1.71.89-3.17,1.37-4.48,1.37-2.64,0-4.73-1.94-7.26-6.37-1.42,1.38-3.04,1.96-4.72,1.96-.97,0-1.95-.19-2.93-.54-2.73-.96-4.11-3.38-5.09-6.19-1.5.9-3.03,1.24-4.62,1.24-.74,0-1.5-.07-2.28-.2-2.73-.45-3.55-2.73-4.89-4.52-1.09.08-2.08.13-2.98.13-5.68,0-7.63-1.76-8.64-6.89-1.58.55-3.14.8-4.59.8-5.56,0-9.45-3.8-6.49-9.7-1.42.62-2.72,1.29-4.08,1.76-1.09.38-2.15.56-3.19.56-2.26,0-4.38-.84-6.33-2.23-2.95-2.09-3.21-4.79-1.04-7.68.35-.46.71-.91,1.45-1.84-1.54.75-2.58,1.24-3.6,1.74-1.61.79-3.18,1.13-4.72,1.13-2.69,0-5.27-1.03-7.8-2.42-.42-.23-.92-.69-1.01-1.12-.44-2.23-2.09-2.47-3.93-2.86-2-.42-3.9-1.3-5.83-2.02-2.84-1.06-5.04-2.67-4.84-5.93-2.78-.83-5.45-1.38-7.93-2.42-2.48-1.04-5.3-1.89-6.1-5.1-.08-.31-.85-.44-1.3-.65-1.93-.88-3.9-1.67-5.76-2.67-1.44-.78-2.55-1.89-2.65-3.78-.02-.45-.96-1.01-1.58-1.26-4.06-1.62-8.17-3.11-12.21-4.76-1.03-.42-1.89-1.26-2.82-1.91,0-.23.01-.46.02-.69,5.59-1.2,11.17-2.4,16.76-3.6.02-.14.04-.28.06-.41-2.48-.61-4.94-1.27-7.43-1.8-7.89-1.69-15.71-3.64-22.93-7.38-2.01-1.04-3.85-2.42-5.77-3.65.08-.15.16-.3.24-.45H-.59c.03-.16.06-.32.09-.48-.61-.18-1.21-.38-1.83-.53-12.03-2.94-24.04-5.99-35.32-11.21-4.3-1.99-8.34-4.59-12.36-7.13-1.63-1.03-2.88-2.65-4.31-4.01.11-.18.21-.35.32-.53,21.12,5.4,41.98,12.08,64.08,12.77-.69-.24-1.38-.5-2.08-.72-10.9-3.39-21.73-6.96-32.02-11.97-5.93-2.89-11.7-6.08-16.57-10.6-2.13-1.97-3.93-4.31-5.62-6.83C-23.84,47.55-1.23,56.75,23.31,60.46c-.79-.43-1.55-.9-2.37-1.27-7.83-3.53-15.5-7.35-22.43-12.5-4.43-3.3-8.41-7.05-11.39-11.75-.71-1.12-1.28-2.34-1.76-3.71,28.17,22.12,61.16,32.93,95.06,41.64.21-.27.41-.54.62-.8-2.57-2.11-5.14-4.21-7.7-6.32.24-.28.48-.55.71-.83,1.08.45,2.14.94,3.23,1.35,9.17,3.46,18.28,7.06,27.52,10.32,11.62,4.1,22.56,9.4,32.73,16.44,4.85,3.35,10.3,5.85,15.56,8.57,3.13,1.62,6.29,3.15,9.47,4.66,1.7.81,3.41,1.62,5.11,2.43,3.49,1.66,7.07,2.78,10.73,2.78,2.01,0,4.04-.34,6.1-1.1,2.16-.8,4.2-1.97,6.18-3.16,3.46-2.08,6.96-3.15,10.43-3.15,3.4,0,6.77,1.03,10.05,3.16,4.03,2.62,8.03,3.84,12.07,3.84,3.62,0,7.27-.98,11-2.82,2.85-1.4,5.72-2.77,8.59-4.13,4.46-2.13,8.93-4.26,13.31-6.54,4.33-2.26,8.5-4.9,12.46-7.75,5.71-4.1,11.8-7.27,18.38-9.75,12.12-4.57,24.12-9.43,36.17-14.19.99-.39,1.94-.89,2.91-1.34.16.19.31.38.47.57-2.4,2.18-4.8,4.37-7.2,6.55.13.18.26.36.4.54,33.89-9.2,67.01-20.09,94.59-43.29M-22.88,19.66l4.48,12.88c.59,1.69,1.29,3.17,2.16,4.54,2.96,4.66,6.89,8.74,12.38,12.82,0,0,.02.01.02.02-14.25-4.52-27.81-10.39-40.67-16.35l-12.94-5.99,7.93,11.85c2.13,3.18,4.11,5.58,6.22,7.53,4.87,4.51,10.54,7.76,15.69,10.35-4.78-1.18-9.51-2.45-14.21-3.7-3.66-.98-7.45-1.99-11.19-2.94l-2.88-.74-1.53,2.55-.21.36-.11.18-1.65,2.75,2.33,2.21c.37.36.76.76,1.16,1.18,1.04,1.09,2.22,2.33,3.76,3.31l.63.4c3.87,2.45,7.88,4.99,12.19,6.99,3.76,1.74,7.59,3.24,11.49,4.59h-16.97l-1.13,2.1-.08.14-.17.31-1.77,3.27,3.14,2c.58.37,1.15.75,1.71,1.13,1.37.92,2.79,1.87,4.37,2.69,4.91,2.54,10.07,4.29,15.04,5.63l-.49.11-3.06.66-.1,3.13-.02.69-.07,2.18,1.79,1.24c.23.16.46.34.69.52.75.58,1.68,1.31,2.9,1.8,2.32.94,4.67,1.85,6.95,2.72,1.55.59,3.14,1.2,4.71,1.82.53,1.75,1.76,3.65,4.4,5.07,1.43.77,2.88,1.41,4.27,2.02.5.22,1,.44,1.49.66,1.65,3.42,4.87,4.73,7.11,5.64.22.09.43.18.65.27,1.94.81,3.93,1.35,5.85,1.87.74,2.42,2.69,4.91,7.06,6.54.47.18.95.36,1.42.55,1.56.62,3.17,1.26,4.98,1.64l.27.06c.21.04.47.1.69.15.62,1.99,2.34,3.07,2.88,3.37,2.28,1.25,5.76,2.91,9.73,2.91.52,0,1.04-.03,1.55-.08.27,1.63,1.2,3.97,4.05,6,2.77,1.97,5.68,2.96,8.65,2.96.84,0,1.68-.08,2.51-.24.27,1.12.71,2.01,1.1,2.64,1.92,3.12,5.71,4.98,10.15,4.98.62,0,1.24-.03,1.86-.1,1.93,4.3,5.5,6.2,11.37,6.2.3,0,.6,0,.92-.01,1.13,1.66,2.94,3.8,6.29,4.36,1.04.17,2,.26,2.93.26.87,0,1.71-.07,2.52-.23,1.21,2.02,3.02,3.94,5.85,4.94,1.44.51,2.88.77,4.26.77,1.2,0,2.35-.19,3.45-.57,2.09,2.78,4.76,4.98,8.53,4.98,1.21,0,2.45-.23,3.8-.71,0,0,.02.02.03.02,1.57,1.38,3.2,2.8,5.28,3.78,1.24.58,2.54.88,3.86.88,1.55,0,3.06-.41,4.41-1.16,1.5,1.27,3.08,2.53,5.03,3.42,1.13.51,2.28.77,3.44.77,2.09,0,3.81-.84,5.16-1.89.02.02.04.03.06.05,1.05.87,2.29,1.87,3.75,2.68,1.54.85,3.11,1.28,4.68,1.28,2.53,0,4.84-1.16,6.49-3.19,1.22.54,2.42.81,3.58.81.93,0,1.81-.18,2.62-.51.13,1.51.26,3.02.38,4.52-2.69,1.99-11.4,8.62-19.61,15.17-5.22,4.17-9.38,7.63-12.36,10.27-5.52,4.9-6.88,6.79-6.63,9.19.17,1.6,1.07,3.26,2.37,4.33,1.73,1.43,3.53,2.41,5.38,2.96-1.03,2.7-1.37,5.91.2,9.49.63,1.43,1.7,2.67,2.96,3.4,2.89,1.69,5.53,2.58,8.05,2.71.02.2.05.41.08.62.63,4.19,1.99,7,4.05,8.36,1.81,1.19,4.01,1.82,6.37,1.82,1.17,0,2.37-.16,3.54-.47.61,3.74,2.12,6.99,6.24,8.65,1.46.59,2.95.89,4.44.89,1.86,0,3.66-.46,5.31-1.33,1.43,3.34,4.17,5.46,8.2,6.33.8.17,1.61.26,2.42.26,3.67,0,6.82-1.82,9.16-4.23,2.17,3.19,5.01,4.8,8.47,4.8.35,0,.71-.02,1.07-.05,3.87-.38,6.87-1.86,8.9-4.39,1.06-1.32,1.74-2.78,2.15-4.24,1.78,1.08,3.81,1.84,6.01,1.84.9,0,1.79-.13,2.64-.38l.13-.04.13-.05c3.58-1.34,5.68-5.47,6.39-9.26,1.31.4,2.7.61,4.11.61,2.32,0,4.5-.58,6.13-1.64,3.27-2.12,4.68-6.6,4.45-10.78.16,0,.31,0,.46,0,4.64,0,8.16-1.63,9.65-4.46,1.27-2.4,2.13-5.73.78-9.69,1.75-.55,3.41-1.47,5.02-2.77,3.94-3.18,2.82-7.1,2.46-8.39-.47-1.65-.84-2.94-18.68-15.77-7.71-5.54-15.87-11.19-19.65-13.77,0,0,0-.01,0-.02.57-1.44,1.16-2.93,1.61-4.52,1.08.56,2.15.69,2.92.69,1.2,0,2.42-.31,3.75-.94.12-.06.24-.11.35-.17.81.95,1.7,1.67,2.69,2.16,1.04.52,2.16.78,3.33.78,2.16,0,4.34-.85,6.87-2.69.1-.07.19-.14.29-.21,1.38,1.06,3.03,1.84,5,1.84,1.34,0,2.69-.38,4.01-1.11,1.55-.87,2.88-1.92,4.15-2.98,1.28.76,2.71,1.16,4.19,1.16s2.89-.39,4.26-1.15c1.8-1,3.27-2.28,4.68-3.54,1.08.46,2.31.79,3.66.79,3.45,0,6.16-2.01,8.82-5.25,1.09.42,2.25.64,3.47.64,1.53,0,3.13-.35,4.75-1.04,2.48-1.06,4.08-2.79,5.17-4.69.92.26,1.86.39,2.82.39,1.46,0,2.94-.31,4.39-.92,2.21-.93,3.88-2.45,5.01-4.55.98.28,2.01.42,3.07.42,1.66,0,3.37-.34,5.23-1.05,3.26-1.24,5.54-3.56,6.68-6.72.84.12,1.59.17,2.31.17,2.2,0,4.13-.52,6.27-1.69,2.47-1.35,4.22-3.43,4.9-5.85.06-.22.12-.45.16-.68.53.06,1.07.09,1.6.09,2.73,0,5.4-.79,7.92-2.34,2.59-1.6,4.28-3.76,4.82-6.17.28.02.55.02.83.02,4.96,0,9.95-2.57,12.65-6.46.03-.01.06-.02.1-.04.91-.32,1.84-.61,2.82-.92,1.51-.47,3.07-.97,4.63-1.59,3.18-1.27,5.38-3.45,6.37-6.3.11-.05.27-.1.49-.18l.53-.18c3.1-1.08,6.3-2.2,9.33-3.87,1.81-1,3.76-2.34,4.42-4.7.23-.8.27-1.57.18-2.31.89-.34,1.78-.68,2.68-1.02,4.62-1.75,9.4-3.56,14.09-5.4,1.8-.7,3.42-1.69,4.92-2.63.92-.58,1.67-1.23,2.33-1.81.23-.2.46-.4.7-.6l1.82-1.49-.42-2.31-.02-.1-.1-.56-.49-2.69-2.69-.52-.09-.02c5.23-1.46,11.86-3.65,17.85-7.61.83-.55,1.53-1.16,2.15-1.69.23-.2.46-.4.7-.6l2.62-2.14-1.68-2.94-.28-.49-1.16-2.03h-2.33c-4.52.04-9.08.19-13.5.34-.91.03-1.82.06-2.74.09,2.7-.87,5.39-1.78,8.04-2.76,5.15-1.89,9.85-4.69,14.4-7.4.82-.49,1.63-.97,2.44-1.45,1.89-1.11,3.37-2.62,4.67-3.95.52-.54,1.02-1.04,1.51-1.49l2.56-2.35-1.98-2.86-.05-.08-.33-.48-1.61-2.33-2.73.74c-3.22.87-6.44,1.76-9.66,2.65-5.23,1.44-10.59,2.92-15.95,4.33,2.46-1.3,4.9-2.7,7.31-4.21,3.57-2.23,6.67-5.02,9.66-7.71.82-.74,1.64-1.47,2.46-2.19,1.2-1.05,1.95-2.32,2.54-3.34.2-.35.4-.68.58-.95l1.74-2.57-2.06-2.32-.19-.21-.2-.23-2.04-2.3-2.74,1.37c-16.25,8.12-29.29,13.48-39.97,17.13,5.14-3.72,9.32-8.16,12.44-13.24.57-.93,1.02-1.87,1.41-2.7.16-.34.32-.67.49-1l1.36-2.71-2.23-2.04-.16-.14-.29-.27-2.59-2.37-2.69,2.26c-24.08,20.25-53.25,31.04-80.32,38.92l-1.81-2.2-.47-.57-1.96-2.38-2.8,1.3c-.33.15-.65.31-.98.46-.61.29-1.18.57-1.72.78-3.24,1.28-6.48,2.56-9.71,3.85-8.64,3.43-17.57,6.98-26.4,10.31-7.13,2.69-13.44,6.04-19.3,10.25-4.05,2.91-8.09,5.42-11.98,7.45-4.43,2.31-9.08,4.53-13.17,6.48l-.39.19c-2.7,1.29-5.5,2.62-8.25,3.97-3.29,1.62-6.31,2.41-9.23,2.41-3.35,0-6.58-1.04-9.9-3.19-3.89-2.52-8-3.8-12.22-3.8-4.17,0-8.37,1.25-12.49,3.72-1.76,1.05-3.63,2.14-5.52,2.84-1.54.57-3.09.85-4.71.85-2.68,0-5.63-.78-9.02-2.4l-1.65-.79c-1.15-.55-2.31-1.1-3.46-1.65-2.98-1.42-6.18-2.96-9.36-4.61-1.16-.6-2.32-1.18-3.48-1.77-4.15-2.09-8.07-4.07-11.64-6.53-10-6.92-21.02-12.45-33.67-16.92-6.5-2.29-13.08-4.81-19.43-7.24-2.67-1.02-5.33-2.04-8-3.05-.66-.25-1.33-.54-2.05-.85-.35-.15-.7-.3-1.06-.45l-2.68-1.12-1.9,2.2-.56.65-.15.18-1.99,2.32C23.43,52.72,3.02,40-12.16,28.08l-10.72-8.42h0Z"/>
      </g>
      <path class="cls-2" d="M176.78,120.06c1.76-1.99,3.22-3.66,4.72-5.36-2.97-.31-3.12,1.12-9.02-.93,1.82,1.86,6.28,1.62,4.29,6.29Z"/>
      <path class="cls-2" d="M183.7,125.16c.43-.35.85-.71,1.54-1.28-.58,2.14-1.06,3.92-1.53,5.69.15.06.3.12.45.18.93-2.13,2.46-4.21,2.66-6.42.36-3.98,1.35-7.66,3.11-11.18-.17-.13.17.13,0,0-1.86,2.65-4.24,4.92-5.81,7.16,3.93-3.5-.77,4.01-.42,5.84Z"/>
      <path class="cls-2" d="M225.24,120.06c-1.76-1.99-3.22-3.66-4.72-5.36,2.97-.31,3.12,1.12,9.02-.93-1.82,1.86-6.28,1.62-4.29,6.29Z"/>
      <path class="cls-2" d="M218.33,125.16c-.43-.35-.85-.71-1.54-1.28.58,2.14,1.06,3.92,1.53,5.69-.15.06-.3.12-.45.18-.93-2.13-2.46-4.21-2.66-6.42-.36-3.98-1.35-7.66-3.11-11.18.17-.13-.17.13,0,0,1.86,2.65,4.24,4.92,5.81,7.16-3.93-3.5.77,4.01.42,5.84Z"/>
      <g>
        <path class="cls-2" d="M182.61,205.12c-.91-3.28-.2-8.77-2.57-9.29s-1,5.68,2.57,9.29Z"/>
        <path class="cls-2" d="M190.65,207.91c-.39-.91,1.33-9.98-3.16-9.98-2.65.65-1.17,5.48,3.16,9.98Z"/>
        <path class="cls-2" d="M185.43,184.17c1.39,2.68,2.78,5.36,4.08,7.86.4-1.15,1.37-1.34,3.03-.26-1.2-1.75-2.74-3.44-3.63-5.43-.89-2-1.94-3.18-4.14-3.78-1.92-.53-3.49-1.47-4.6,1.07-.21.49-1.02.99-1.16,1.6s-.32,6.71-.32,9.97c.82-2.05,2.3-.38,3.19.89-.53-3.36-1.81-6.55-.42-10.16,1.21,2.88,2.69,7.9,3.64,10.83.36,1.11.64-.09,1.78-.46.52-.17,1.65.1,2.27.55-.25-4.97-4.52-7.67-3.73-12.68Z"/>
        <path class="cls-2" d="M190.27,193.97c1.15,2.83,2.99,6.12,5.44,7.96.36-.12-2.12-5.42-2.55-8.76-.75-.66-2.84-.56-2.9.8Z"/>
      </g>
      <g>
        <path class="cls-2" d="M216.09,205.12c.91-3.28.2-8.77,2.57-9.29,2.37-.52,1,5.68-2.57,9.29Z"/>
        <path class="cls-2" d="M208.05,207.91c.39-.91-1.33-9.98,3.16-9.98,2.65.65,1.17,5.48-3.16,9.98Z"/>
        <path class="cls-2" d="M213.27,184.17c-1.39,2.68-2.78,5.36-4.08,7.86-.4-1.15-1.37-1.34-3.03-.26,1.2-1.75,2.74-3.44,3.63-5.43.89-2,1.94-3.18,4.14-3.78,1.92-.53,3.49-1.47,4.6,1.07.21.49,1.02.99,1.16,1.6s.32,6.71.32,9.97c-.82-2.05-2.3-.38-3.19.89.53-3.36,1.81-6.55.42-10.16-1.21,2.88-2.69,7.9-3.64,10.83-.36,1.11-.64-.09-1.78-.46-.52-.17-1.65.1-2.27.55.25-4.97,4.52-7.67,3.73-12.68Z"/>
        <path class="cls-2" d="M208.43,193.97c-1.15,2.83-2.99,6.12-5.44,7.96-.36-.12,2.12-5.42,2.55-8.76.75-.66,2.84-.56,2.9.8Z"/>
      </g>
      <path class="cls-2" d="M207.54,117.84c1.14-.52,1.79-1.23,2.2-2.01.28-.52,1.09-1.92.38-2.93-1.44-2.06-2.76-2.96-5.06-3.8-1.87-.68-4.23-.92-6.15-.7-3.05.36-6.51,2.14-7.63,5.01-.21.55-.17,1.46.16,1.91.62.86,1.54,1.5,2.37,2.27,2.66-6.67,11.59-5.83,13.73.23Z"/>
      <path class="cls-2" d="M208.68,128.41c-.75-.55-4.27,3.33-5.72,5.32,0-2.29.76-4.52.42-6.63-.3-1.88-2.75-4.84-2.75-4.84,0,0-2.33,3.11-2.55,5.22-.21,2.05.22,3.49.22,5.8-1.53-2.13-4.58-5.68-5.34-5.31,0,0,.59,1.95,1.13,2.96,1.65,3.13,3.13,6.21,4.39,9.51.4,1.06,1.6,6.1,2.15,7.68,2.13-5.25,2.61-13.14,6.72-17.19.54-.53,1.34-2.53,1.34-2.53Z"/>
      <path class="cls-2" d="M168.01,122.94l2.66,36.54s-9.75-31.92-10.44-35.42-13.09-5.36-12.31.37c.77,5.73,7.44,30.33,7.44,30.33-2.93,1.1-15.71-27.37-15.71-27.37,0,0,2.97,21.59,1.87,21.22s-10.74-23.39-14.69-28.47c-3.71-4.76,2.56,19.78,0,17.22-2.56-2.56-8.06-11.11-11.72-19.11-3.66-8,.76,16.08-3.27,10.09s-11.72-16.37-17.95-27.64c-6.23-11.26-52.89-26.56-54.39-27.68-2.52-1.87,46.2,6.2,51.48,8.85,16.28,8.14-66.34-26.54-66.34-26.54,0,0,66.39,14.44,75.54,20.35,8.12,5.24,52.38,32.47,64.61,41.45,1.87,1.38,3.06,3.5,3.22,5.82Z"/>
      <path class="cls-2" d="M231.14,124.91l-2.95,37.27s8.95-32.5,9.68-37.5,14.12-4.15,13.53-.48-7.72,31.92-7.72,31.92c5.17-.94,18-28.74,18-28.74,0,0-3.21,21.5-2.11,21.14s10.98-23.31,14.93-28.38c3.71-4.76-2.56,19.78,0,17.22,2.56-2.56,8.06-11.11,11.72-19.11,3.66-8-.76,16.08,3.27,10.09,4.03-5.99,11.72-16.37,17.95-27.64,6.23-11.26,52.89-26.56,54.39-27.68,2.52-1.87-46.2,6.2-51.48,8.85-16.28,8.14,66.34-26.54,66.34-26.54,0,0-66.39,14.44-75.54,20.35-7.96,5.14-52.24,32.19-65.84,41.88-2.41,1.72-3.93,4.41-4.17,7.36Z"/>
      <path class="cls-2" d="M161.66,199.11l-23.51,18.89s4.61,7.39,15.91-3.9c0,0-5.34,3.63-9.03,3.65l16.63-18.64Z"/>
      <path class="cls-2" d="M165.15,208.24s-20.32,20.02-20.94,21.35c-.62,1.33.77,9.53,9.84,4.78,1.64-.86,8.95-11.05,8.95-11.05,0,0-9.94,9.76-11.54,8.91-1.16-.62,11.43-14.04,11.43-14.04,0,0-14.47,13.45-13.96,11.6s16.22-21.56,16.22-21.56Z"/>
      <path class="cls-2" d="M174.84,216.39s-18.18,19.3-19,22.55.06,6.72,1.93,7.82c2.74,1.63,5.75-.1,7.38-1.42,1.63-1.32,10.2-18.39,10.2-18.39,0,0-11.73,16.97-13.69,16.76-1.96-.2,4.65-10.16,4.65-10.16,0,0-6.6,8.23-6.7,6.6s15.24-23.77,15.24-23.77Z"/>
      <path class="cls-2" d="M182.25,224.32s-12.48,21.21-12.7,24.23c-.25,3.45,1.14,5.25,3.4,6.04,4.92,1.73,7.65-3.79,11.88-12.73,4.23-8.94-6.18,9.94-7.96,8.87-1.02-.61,3.66-11.07,3.66-11.07,0,0-5.94,10.06-7.06,8.58-.8-1.05,8.79-23.92,8.79-23.92Z"/>
      <path class="cls-2" d="M236.84,197.07l23.51,18.89s-4.61,7.39-15.91-3.9c0,0,5.34,3.63,9.03,3.65l-16.63-18.64Z"/>
      <path class="cls-2" d="M233.35,206.21s20.32,20.02,20.94,21.35-.77,9.53-9.84,4.78c-1.64-.86-8.95-11.05-8.95-11.05,0,0,9.94,9.76,11.54,8.91,1.16-.62-11.43-14.04-11.43-14.04,0,0,14.47,13.45,13.96,11.6s-16.22-21.56-16.22-21.56Z"/>
      <path class="cls-2" d="M223.67,214.36s18.18,19.3,19,22.55-.06,6.72-1.93,7.82c-2.74,1.63-5.75-.1-7.38-1.42s-10.2-18.39-10.2-18.39c0,0,11.73,16.97,13.69,16.76s-4.65-10.16-4.65-10.16c0,0,6.6,8.23,6.7,6.6.1-1.63-15.24-23.77-15.24-23.77Z"/>
      <path class="cls-2" d="M216.25,222.29s12.48,21.21,12.7,24.23c.25,3.45-1.14,5.25-3.4,6.04-4.92,1.73-7.65-3.79-11.88-12.73-4.23-8.94,6.18,9.94,7.96,8.87,1.02-.61-3.66-11.07-3.66-11.07,0,0,5.94,10.06,7.06,8.58.8-1.05-8.79-23.92-8.79-23.92Z"/>
      <path class="cls-2" d="M184.99,248.78s-1.82,12.04,4.65,12.34c6.47.3,7.61-11.96,7.99-16.99s-.08-20.11-.08-20.11c0,0-2.51,34.21-7.16,33.3-4.65-.91-5.41-8.53-5.41-8.53Z"/>
      <path class="cls-2" d="M213.97,248.78s1.82,12.04-4.65,12.34c-6.47.3-7.61-11.96-7.99-16.99s.08-20.11.08-20.11c0,0,2.51,34.21,7.16,33.3s5.41-8.53,5.41-8.53Z"/>
    </g>
  </g>
</svg>